# vtk DataFile Version 2.0 
grid, time 110
ASCII 
DATASET POLYDATA 
POINTS  331  float
      9.94521895      -1.04528463       0.00000000
      9.78147601      -2.07911691       0.00000000
      9.51056516      -3.09016994       0.00000000
      9.13545458      -4.06736643       0.00000000
      8.66025404      -5.00000000       0.00000000
      8.09016994      -5.87785252       0.00000000
      7.43144825      -6.69130606       0.00000000
      6.69130606      -7.43144825       0.00000000
      5.87785252      -8.09016994       0.00000000
      5.00000000      -8.66025404       0.00000000
      4.06736643      -9.13545458       0.00000000
      3.09016994      -9.51056516       0.00000000
      2.07911691      -9.78147601       0.00000000
      1.04528463      -9.94521895       0.00000000
     -0.00000000     -10.00000000       0.00000000
     -1.04528463      -9.94521895       0.00000000
     -2.07911691      -9.78147601       0.00000000
     -3.09016994      -9.51056516       0.00000000
     -4.06736643      -9.13545458       0.00000000
     -5.00000000      -8.66025404       0.00000000
     -5.87785252      -8.09016994       0.00000000
     -6.69130606      -7.43144825       0.00000000
     -7.43144825      -6.69130606       0.00000000
     -8.09016994      -5.87785252       0.00000000
     -8.66025404      -5.00000000       0.00000000
     -9.13545458      -4.06736643       0.00000000
     -9.51056516      -3.09016994       0.00000000
     -9.78147601      -2.07911691       0.00000000
     -9.94521895      -1.04528463       0.00000000
    -10.00000000       0.00000000       0.00000000
     -9.94521895       1.04528463       0.00000000
     -9.78147601       2.07911691       0.00000000
     -9.51056516       3.09016994       0.00000000
     -9.13545458       4.06736643       0.00000000
     -8.66025404       5.00000000       0.00000000
     -8.09016994       5.87785252       0.00000000
     -7.43144825       6.69130606       0.00000000
     -6.69130606       7.43144825       0.00000000
     -5.87785252       8.09016994       0.00000000
     -5.00000000       8.66025404       0.00000000
     -4.06736643       9.13545458       0.00000000
     -3.09016994       9.51056516       0.00000000
     -2.07911691       9.78147601       0.00000000
     -1.04528463       9.94521895       0.00000000
      0.00000000      10.00000000       0.00000000
      1.04528463       9.94521895       0.00000000
      2.07911691       9.78147601       0.00000000
      3.09016994       9.51056516       0.00000000
      4.06736643       9.13545458       0.00000000
      5.00000000       8.66025404       0.00000000
      5.87785252       8.09016994       0.00000000
      6.69130606       7.43144825       0.00000000
      7.43144825       6.69130606       0.00000000
      8.09016994       5.87785252       0.00000000
      8.66025404       5.00000000       0.00000000
      9.13545458       4.06736643       0.00000000
      9.51056516       3.09016994       0.00000000
      9.78147601       2.07911691       0.00000000
      9.94521895       1.04528463       0.00000000
     10.00000000       0.00000000       0.00000000
      8.93914522      -1.04483623       0.00000000
      8.75740384      -2.07554284       0.00000000
      8.45723359      -3.07818129       0.00000000
      8.04269376      -4.03919262       0.00000000
      7.51939030      -4.94558080       0.00000000
      6.89439999      -5.78508849       0.00000000
      6.17617474      -6.54636277       0.00000000
      5.37442733      -7.21910873       0.00000000
      4.50000000      -7.79422863       0.00000000
      3.56471789      -8.26394496       0.00000000
      2.58122909      -8.62190561       0.00000000
      1.56283360      -8.86326978       0.00000000
      0.52330346      -8.98477342       0.00000000
     -0.52330346      -8.98477342       0.00000000
     -1.56283360      -8.86326978       0.00000000
     -2.58122909      -8.62190561       0.00000000
     -3.56471789      -8.26394496       0.00000000
     -4.50000000      -7.79422863       0.00000000
     -5.37442733      -7.21910873       0.00000000
     -6.17617474      -6.54636277       0.00000000
     -6.89439999      -5.78508849       0.00000000
     -7.51939030      -4.94558080       0.00000000
     -8.04269376      -4.03919262       0.00000000
     -8.45723359      -3.07818129       0.00000000
     -8.75740384      -2.07554284       0.00000000
     -8.93914522      -1.04483623       0.00000000
     -9.00000000       0.00000000       0.00000000
     -8.93914522       1.04483623       0.00000000
     -8.75740384       2.07554284       0.00000000
     -8.45723359       3.07818129       0.00000000
     -8.04269376       4.03919262       0.00000000
     -7.51939030       4.94558080       0.00000000
     -6.89439999       5.78508849       0.00000000
     -6.17617474       6.54636277       0.00000000
     -5.37442733       7.21910873       0.00000000
     -4.50000000       7.79422863       0.00000000
     -3.56471789       8.26394496       0.00000000
     -2.58122909       8.62190561       0.00000000
     -1.56283360       8.86326978       0.00000000
     -0.52330346       8.98477342       0.00000000
      0.52330346       8.98477342       0.00000000
      1.56283360       8.86326978       0.00000000
      2.58122909       8.62190561       0.00000000
      3.56471789       8.26394496       0.00000000
      4.50000000       7.79422863       0.00000000
      5.37442733       7.21910873       0.00000000
      6.17617474       6.54636277       0.00000000
      6.89439999       5.78508849       0.00000000
      7.51939030       4.94558080       0.00000000
      8.04269376       4.03919262       0.00000000
      8.45723359       3.07818129       0.00000000
      8.75740384       2.07554284       0.00000000
      8.93914522       1.04483623       0.00000000
      9.00000000       0.00000000       0.00000000
      7.93155889      -1.04420954       0.00000000
      7.72740661      -2.07055236       0.00000000
      7.39103626      -3.06146746       0.00000000
      6.92820323      -4.00000000       0.00000000
      6.34682672      -4.87009143       0.00000000
      5.65685425      -5.65685425       0.00000000
      4.87009143      -6.34682672       0.00000000
      4.00000000      -6.92820323       0.00000000
      3.06146746      -7.39103626       0.00000000
      2.07055236      -7.72740661       0.00000000
      1.04420954      -7.93155889       0.00000000
     -0.00000000      -8.00000000       0.00000000
     -1.04420954      -7.93155889       0.00000000
     -2.07055236      -7.72740661       0.00000000
     -3.06146746      -7.39103626       0.00000000
     -4.00000000      -6.92820323       0.00000000
     -4.87009143      -6.34682672       0.00000000
     -5.65685425      -5.65685425       0.00000000
     -6.34682672      -4.87009143       0.00000000
     -6.92820323      -4.00000000       0.00000000
     -7.39103626      -3.06146746       0.00000000
     -7.72740661      -2.07055236       0.00000000
     -7.93155889      -1.04420954       0.00000000
     -8.00000000       0.00000000       0.00000000
     -7.93155889       1.04420954       0.00000000
     -7.72740661       2.07055236       0.00000000
     -7.39103626       3.06146746       0.00000000
     -6.92820323       4.00000000       0.00000000
     -6.34682672       4.87009143       0.00000000
     -5.65685425       5.65685425       0.00000000
     -4.87009143       6.34682672       0.00000000
     -4.00000000       6.92820323       0.00000000
     -3.06146746       7.39103626       0.00000000
     -2.07055236       7.72740661       0.00000000
     -1.04420954       7.93155889       0.00000000
      0.00000000       8.00000000       0.00000000
      1.04420954       7.93155889       0.00000000
      2.07055236       7.72740661       0.00000000
      3.06146746       7.39103626       0.00000000
      4.00000000       6.92820323       0.00000000
      4.87009143       6.34682672       0.00000000
      5.65685425       5.65685425       0.00000000
      6.34682672       4.87009143       0.00000000
      6.92820323       4.00000000       0.00000000
      7.39103626       3.06146746       0.00000000
      7.72740661       2.07055236       0.00000000
      7.93155889       1.04420954       0.00000000
      8.00000000       0.00000000       0.00000000
      6.92181578      -1.04329586       0.00000000
      6.68900964      -2.06328622       0.00000000
      6.30678208      -3.03718617       0.00000000
      5.78367142      -3.94324041       0.00000000
      5.13136310      -4.76120916       0.00000000
      4.36442861      -5.47282038       0.00000000
      3.50000000      -6.06217783       0.00000000
      2.55738717      -6.51611624       0.00000000
      1.55764654      -6.82449539       0.00000000
      0.52311066      -6.98042658       0.00000000
     -0.52311066      -6.98042658       0.00000000
     -1.55764654      -6.82449539       0.00000000
     -2.55738717      -6.51611624       0.00000000
     -3.50000000      -6.06217783       0.00000000
     -4.36442861      -5.47282038       0.00000000
     -5.13136310      -4.76120916       0.00000000
     -5.78367142      -3.94324041       0.00000000
     -6.30678208      -3.03718617       0.00000000
     -6.68900964      -2.06328622       0.00000000
     -6.92181578      -1.04329586       0.00000000
     -7.00000000       0.00000000       0.00000000
     -6.92181578       1.04329586       0.00000000
     -6.68900964       2.06328622       0.00000000
     -6.30678208       3.03718617       0.00000000
     -5.78367142       3.94324041       0.00000000
     -5.13136310       4.76120916       0.00000000
     -4.36442861       5.47282038       0.00000000
     -3.50000000       6.06217783       0.00000000
     -2.55738717       6.51611624       0.00000000
     -1.55764654       6.82449539       0.00000000
     -0.52311066       6.98042658       0.00000000
      0.52311066       6.98042658       0.00000000
      1.55764654       6.82449539       0.00000000
      2.55738717       6.51611624       0.00000000
      3.50000000       6.06217783       0.00000000
      4.36442861       5.47282038       0.00000000
      5.13136310       4.76120916       0.00000000
      5.78367142       3.94324041       0.00000000
      6.30678208       3.03718617       0.00000000
      6.68900964       2.06328622       0.00000000
      6.92181578       1.04329586       0.00000000
      7.00000000       0.00000000       0.00000000
      5.90884652      -1.04188907       0.00000000
      5.63815572      -2.05212086       0.00000000
      5.19615242      -3.00000000       0.00000000
      4.59626666      -3.85672566       0.00000000
      3.85672566      -4.59626666       0.00000000
      3.00000000      -5.19615242       0.00000000
      2.05212086      -5.63815572       0.00000000
      1.04188907      -5.90884652       0.00000000
     -0.00000000      -6.00000000       0.00000000
     -1.04188907      -5.90884652       0.00000000
     -2.05212086      -5.63815572       0.00000000
     -3.00000000      -5.19615242       0.00000000
     -3.85672566      -4.59626666       0.00000000
     -4.59626666      -3.85672566       0.00000000
     -5.19615242      -3.00000000       0.00000000
     -5.63815572      -2.05212086       0.00000000
     -5.90884652      -1.04188907       0.00000000
     -6.00000000       0.00000000       0.00000000
     -5.90884652       1.04188907       0.00000000
     -5.63815572       2.05212086       0.00000000
     -5.19615242       3.00000000       0.00000000
     -4.59626666       3.85672566       0.00000000
     -3.85672566       4.59626666       0.00000000
     -3.00000000       5.19615242       0.00000000
     -2.05212086       5.63815572       0.00000000
     -1.04188907       5.90884652       0.00000000
      0.00000000       6.00000000       0.00000000
      1.04188907       5.90884652       0.00000000
      2.05212086       5.63815572       0.00000000
      3.00000000       5.19615242       0.00000000
      3.85672566       4.59626666       0.00000000
      4.59626666       3.85672566       0.00000000
      5.19615242       3.00000000       0.00000000
      5.63815572       2.05212086       0.00000000
      5.90884652       1.04188907       0.00000000
      6.00000000       0.00000000       0.00000000
      4.89073800      -1.03955845       0.00000000
      4.56772729      -2.03368322       0.00000000
      4.04508497      -2.93892626       0.00000000
      3.34565303      -3.71572413       0.00000000
      2.50000000      -4.33012702       0.00000000
      1.54508497      -4.75528258       0.00000000
      0.52264232      -4.97260948       0.00000000
     -0.52264232      -4.97260948       0.00000000
     -1.54508497      -4.75528258       0.00000000
     -2.50000000      -4.33012702       0.00000000
     -3.34565303      -3.71572413       0.00000000
     -4.04508497      -2.93892626       0.00000000
     -4.56772729      -2.03368322       0.00000000
     -4.89073800      -1.03955845       0.00000000
     -5.00000000       0.00000000       0.00000000
     -4.89073800       1.03955845       0.00000000
     -4.56772729       2.03368322       0.00000000
     -4.04508497       2.93892626       0.00000000
     -3.34565303       3.71572413       0.00000000
     -2.50000000       4.33012702       0.00000000
     -1.54508497       4.75528258       0.00000000
     -0.52264232       4.97260948       0.00000000
      0.52264232       4.97260948       0.00000000
      1.54508497       4.75528258       0.00000000
      2.50000000       4.33012702       0.00000000
      3.34565303       3.71572413       0.00000000
      4.04508497       2.93892626       0.00000000
      4.56772729       2.03368322       0.00000000
      4.89073800       1.03955845       0.00000000
      5.00000000       0.00000000       0.00000000
      3.86370331      -1.03527618       0.00000000
      3.46410162      -2.00000000       0.00000000
      2.82842712      -2.82842712       0.00000000
      2.00000000      -3.46410162       0.00000000
      1.03527618      -3.86370331       0.00000000
     -0.00000000      -4.00000000       0.00000000
     -1.03527618      -3.86370331       0.00000000
     -2.00000000      -3.46410162       0.00000000
     -2.82842712      -2.82842712       0.00000000
     -3.46410162      -2.00000000       0.00000000
     -3.86370331      -1.03527618       0.00000000
     -4.00000000       0.00000000       0.00000000
     -3.86370331       1.03527618       0.00000000
     -3.46410162       2.00000000       0.00000000
     -2.82842712       2.82842712       0.00000000
     -2.00000000       3.46410162       0.00000000
     -1.03527618       3.86370331       0.00000000
      0.00000000       4.00000000       0.00000000
      1.03527618       3.86370331       0.00000000
      2.00000000       3.46410162       0.00000000
      2.82842712       2.82842712       0.00000000
      3.46410162       2.00000000       0.00000000
      3.86370331       1.03527618       0.00000000
      4.00000000       0.00000000       0.00000000
      2.81907786      -1.02606043       0.00000000
      2.29813333      -1.92836283       0.00000000
      1.50000000      -2.59807621       0.00000000
      0.52094453      -2.95442326       0.00000000
     -0.52094453      -2.95442326       0.00000000
     -1.50000000      -2.59807621       0.00000000
     -2.29813333      -1.92836283       0.00000000
     -2.81907786      -1.02606043       0.00000000
     -3.00000000       0.00000000       0.00000000
     -2.81907786       1.02606043       0.00000000
     -2.29813333       1.92836283       0.00000000
     -1.50000000       2.59807621       0.00000000
     -0.52094453       2.95442326       0.00000000
      0.52094453       2.95442326       0.00000000
      1.50000000       2.59807621       0.00000000
      2.29813333       1.92836283       0.00000000
      2.81907786       1.02606043       0.00000000
      3.00000000       0.00000000       0.00000000
      1.73205081      -1.00000000       0.00000000
      1.00000000      -1.73205081       0.00000000
     -0.00000000      -2.00000000       0.00000000
     -1.00000000      -1.73205081       0.00000000
     -1.73205081      -1.00000000       0.00000000
     -2.00000000       0.00000000       0.00000000
     -1.73205081       1.00000000       0.00000000
     -1.00000000       1.73205081       0.00000000
      0.00000000       2.00000000       0.00000000
      1.00000000       1.73205081       0.00000000
      1.73205081       1.00000000       0.00000000
      2.00000000       0.00000000       0.00000000
      0.50000000      -0.86602540       0.00000000
     -0.50000000      -0.86602540       0.00000000
     -1.00000000       0.00000000       0.00000000
     -0.50000000       0.86602540       0.00000000
      0.50000000       0.86602540       0.00000000
      1.00000000       0.00000000       0.00000000
      0.00000000       0.00000000       0.00000000
POLYGONS  1860  7440
3 0 59 113
3 0 113 60
3 0 60 1
3 0 59 1
3 1 0 60
3 1 60 61
3 1 61 2
3 1 0 2
3 2 1 61
3 2 61 62
3 2 62 3
3 2 1 3
3 3 2 62
3 3 62 63
3 3 63 4
3 3 2 4
3 4 3 63
3 4 63 64
3 4 64 5
3 4 3 5
3 5 4 64
3 5 64 65
3 5 65 6
3 5 4 6
3 6 5 65
3 6 65 66
3 6 66 7
3 6 5 7
3 7 6 66
3 7 66 67
3 7 67 8
3 7 6 8
3 8 7 67
3 8 67 68
3 8 68 9
3 8 7 9
3 9 8 68
3 9 68 10
3 9 8 10
3 10 9 68
3 10 68 69
3 10 69 11
3 10 9 11
3 11 10 69
3 11 69 70
3 11 70 12
3 11 10 12
3 12 11 70
3 12 70 71
3 12 71 13
3 12 11 13
3 13 12 71
3 13 71 72
3 13 72 14
3 13 12 14
3 14 13 72
3 14 72 73
3 14 73 15
3 14 13 15
3 15 14 73
3 15 73 74
3 15 74 16
3 15 14 16
3 16 15 74
3 16 74 75
3 16 75 17
3 16 15 17
3 17 16 75
3 17 75 76
3 17 76 18
3 17 16 18
3 18 17 76
3 18 76 77
3 18 77 19
3 18 17 19
3 19 18 77
3 19 77 20
3 19 18 20
3 20 19 77
3 20 77 78
3 20 78 21
3 20 19 21
3 21 20 78
3 21 78 79
3 21 79 22
3 21 20 22
3 22 21 79
3 22 79 80
3 22 80 23
3 22 21 23
3 23 22 80
3 23 80 81
3 23 81 24
3 23 22 24
3 24 23 81
3 24 81 82
3 24 82 25
3 24 23 25
3 25 24 82
3 25 82 83
3 25 83 26
3 25 24 26
3 26 25 83
3 26 83 84
3 26 84 27
3 26 25 27
3 27 26 84
3 27 84 85
3 27 85 28
3 27 26 28
3 28 27 85
3 28 85 86
3 28 86 29
3 28 27 29
3 29 28 86
3 29 86 30
3 29 28 30
3 30 29 86
3 30 86 87
3 30 87 31
3 30 29 31
3 31 30 87
3 31 87 88
3 31 88 32
3 31 30 32
3 32 31 88
3 32 88 89
3 32 89 33
3 32 31 33
3 33 32 89
3 33 89 90
3 33 90 34
3 33 32 34
3 34 33 90
3 34 90 91
3 34 91 35
3 34 33 35
3 35 34 91
3 35 91 92
3 35 92 36
3 35 34 36
3 36 35 92
3 36 92 93
3 36 93 37
3 36 35 37
3 37 36 93
3 37 93 94
3 37 94 38
3 37 36 38
3 38 37 94
3 38 94 95
3 38 95 39
3 38 37 39
3 39 38 95
3 39 95 40
3 39 38 40
3 40 39 95
3 40 95 96
3 40 96 41
3 40 39 41
3 41 40 96
3 41 96 97
3 41 97 42
3 41 40 42
3 42 41 97
3 42 97 98
3 42 98 43
3 42 41 43
3 43 42 98
3 43 98 99
3 43 99 44
3 43 42 44
3 44 43 99
3 44 99 100
3 44 100 45
3 44 43 45
3 45 44 100
3 45 100 101
3 45 101 46
3 45 44 46
3 46 45 101
3 46 101 102
3 46 102 47
3 46 45 47
3 47 46 102
3 47 102 103
3 47 103 48
3 47 46 48
3 48 47 103
3 48 103 104
3 48 104 49
3 48 47 49
3 49 48 104
3 49 104 50
3 49 48 50
3 50 104 105
3 50 105 51
3 50 51 49
3 50 104 49
3 51 105 106
3 51 106 52
3 51 52 50
3 51 105 50
3 52 106 107
3 52 107 53
3 52 53 51
3 52 106 51
3 53 107 108
3 53 108 54
3 53 54 52
3 53 107 52
3 54 108 109
3 54 109 55
3 54 55 53
3 54 108 53
3 55 109 110
3 55 110 56
3 55 56 54
3 55 109 54
3 56 110 111
3 56 111 57
3 56 57 55
3 56 110 55
3 57 111 112
3 57 112 58
3 57 58 56
3 57 111 56
3 58 112 113
3 58 113 59
3 58 59 57
3 58 112 57
3 59 0 58
3 59 58 113
3 59 0 113
3 60 61 1
3 60 1 0
3 60 0 113
3 60 113 161
3 60 161 114
3 60 61 114
3 61 62 2
3 61 2 1
3 61 1 60
3 61 60 114
3 61 114 115
3 61 62 115
3 62 63 3
3 62 3 2
3 62 2 61
3 62 61 115
3 62 115 116
3 62 63 116
3 63 64 4
3 63 4 3
3 63 3 62
3 63 62 116
3 63 116 117
3 63 64 117
3 64 65 5
3 64 5 4
3 64 4 63
3 64 63 117
3 64 117 118
3 64 65 118
3 65 66 6
3 65 6 5
3 65 5 64
3 65 64 118
3 65 118 119
3 65 66 119
3 66 67 7
3 66 7 6
3 66 6 65
3 66 65 119
3 66 119 120
3 66 67 120
3 67 68 8
3 67 8 7
3 67 7 66
3 67 66 120
3 67 120 121
3 67 68 121
3 68 69 10
3 68 10 9
3 68 9 8
3 68 8 67
3 68 67 121
3 68 69 121
3 69 70 11
3 69 11 10
3 69 10 68
3 69 68 121
3 69 121 122
3 69 70 122
3 70 71 12
3 70 12 11
3 70 11 69
3 70 69 122
3 70 122 123
3 70 71 123
3 71 72 13
3 71 13 12
3 71 12 70
3 71 70 123
3 71 123 124
3 71 72 124
3 72 14 13
3 72 13 71
3 72 71 124
3 72 124 125
3 72 125 73
3 72 14 73
3 73 15 14
3 73 14 72
3 73 72 125
3 73 125 126
3 73 126 74
3 73 15 74
3 74 16 15
3 74 15 73
3 74 73 126
3 74 126 127
3 74 127 75
3 74 16 75
3 75 17 16
3 75 16 74
3 75 74 127
3 75 127 128
3 75 128 76
3 75 17 76
3 76 18 17
3 76 17 75
3 76 75 128
3 76 128 129
3 76 129 77
3 76 18 77
3 77 20 19
3 77 19 18
3 77 18 76
3 77 76 129
3 77 129 78
3 77 20 78
3 78 21 20
3 78 20 77
3 78 77 129
3 78 129 130
3 78 130 79
3 78 21 79
3 79 22 21
3 79 21 78
3 79 78 130
3 79 130 131
3 79 131 80
3 79 22 80
3 80 23 22
3 80 22 79
3 80 79 131
3 80 131 132
3 80 132 81
3 80 23 81
3 81 24 23
3 81 23 80
3 81 80 132
3 81 132 133
3 81 133 82
3 81 24 82
3 82 25 24
3 82 24 81
3 82 81 133
3 82 133 134
3 82 134 83
3 82 25 83
3 83 26 25
3 83 25 82
3 83 82 134
3 83 134 135
3 83 135 84
3 83 26 84
3 84 27 26
3 84 26 83
3 84 83 135
3 84 135 136
3 84 136 85
3 84 27 85
3 85 28 27
3 85 27 84
3 85 84 136
3 85 136 137
3 85 137 86
3 85 28 86
3 86 28 85
3 86 85 137
3 86 137 87
3 86 87 30
3 86 30 29
3 86 28 29
3 87 86 137
3 87 137 138
3 87 138 88
3 87 88 31
3 87 31 30
3 87 86 30
3 88 87 138
3 88 138 139
3 88 139 89
3 88 89 32
3 88 32 31
3 88 87 31
3 89 88 139
3 89 139 140
3 89 140 90
3 89 90 33
3 89 33 32
3 89 88 32
3 90 89 140
3 90 140 141
3 90 141 91
3 90 91 34
3 90 34 33
3 90 89 33
3 91 90 141
3 91 141 142
3 91 142 92
3 91 92 35
3 91 35 34
3 91 90 34
3 92 91 142
3 92 142 143
3 92 143 93
3 92 93 36
3 92 36 35
3 92 91 35
3 93 92 143
3 93 143 144
3 93 144 94
3 93 94 37
3 93 37 36
3 93 92 36
3 94 93 144
3 94 144 145
3 94 145 95
3 94 95 38
3 94 38 37
3 94 93 37
3 95 94 145
3 95 145 96
3 95 96 40
3 95 40 39
3 95 39 38
3 95 94 38
3 96 95 145
3 96 145 146
3 96 146 97
3 96 97 41
3 96 41 40
3 96 95 40
3 97 96 146
3 97 146 147
3 97 147 98
3 97 98 42
3 97 42 41
3 97 96 41
3 98 97 147
3 98 147 148
3 98 148 99
3 98 99 43
3 98 43 42
3 98 97 42
3 99 98 148
3 99 148 149
3 99 149 100
3 99 100 44
3 99 44 43
3 99 98 43
3 100 149 150
3 100 150 101
3 100 101 45
3 100 45 44
3 100 44 99
3 100 149 99
3 101 150 151
3 101 151 102
3 101 102 46
3 101 46 45
3 101 45 100
3 101 150 100
3 102 151 152
3 102 152 103
3 102 103 47
3 102 47 46
3 102 46 101
3 102 151 101
3 103 152 153
3 103 153 104
3 103 104 48
3 103 48 47
3 103 47 102
3 103 152 102
3 104 153 105
3 104 105 50
3 104 50 49
3 104 49 48
3 104 48 103
3 104 153 103
3 105 153 154
3 105 154 106
3 105 106 51
3 105 51 50
3 105 50 104
3 105 153 104
3 106 154 155
3 106 155 107
3 106 107 52
3 106 52 51
3 106 51 105
3 106 154 105
3 107 155 156
3 107 156 108
3 107 108 53
3 107 53 52
3 107 52 106
3 107 155 106
3 108 156 157
3 108 157 109
3 108 109 54
3 108 54 53
3 108 53 107
3 108 156 107
3 109 157 158
3 109 158 110
3 109 110 55
3 109 55 54
3 109 54 108
3 109 157 108
3 110 158 159
3 110 159 111
3 110 111 56
3 110 56 55
3 110 55 109
3 110 158 109
3 111 159 160
3 111 160 112
3 111 112 57
3 111 57 56
3 111 56 110
3 111 159 110
3 112 160 161
3 112 161 113
3 112 113 58
3 112 58 57
3 112 57 111
3 112 160 111
3 113 60 0
3 113 0 59
3 113 59 58
3 113 58 112
3 113 112 161
3 113 60 161
3 114 115 61
3 114 61 60
3 114 60 161
3 114 161 203
3 114 203 162
3 114 115 162
3 115 116 62
3 115 62 61
3 115 61 114
3 115 114 162
3 115 162 163
3 115 116 163
3 116 117 63
3 116 63 62
3 116 62 115
3 116 115 163
3 116 163 164
3 116 117 164
3 117 118 64
3 117 64 63
3 117 63 116
3 117 116 164
3 117 164 165
3 117 118 165
3 118 119 65
3 118 65 64
3 118 64 117
3 118 117 165
3 118 165 166
3 118 119 166
3 119 120 66
3 119 66 65
3 119 65 118
3 119 118 166
3 119 166 167
3 119 120 167
3 120 121 67
3 120 67 66
3 120 66 119
3 120 119 167
3 120 167 168
3 120 121 168
3 121 122 69
3 121 69 68
3 121 68 67
3 121 67 120
3 121 120 168
3 121 122 168
3 122 123 70
3 122 70 69
3 122 69 121
3 122 121 168
3 122 168 169
3 122 123 169
3 123 124 71
3 123 71 70
3 123 70 122
3 123 122 169
3 123 169 170
3 123 124 170
3 124 125 72
3 124 72 71
3 124 71 123
3 124 123 170
3 124 170 171
3 124 125 171
3 125 73 72
3 125 72 124
3 125 124 171
3 125 171 172
3 125 172 126
3 125 73 126
3 126 74 73
3 126 73 125
3 126 125 172
3 126 172 173
3 126 173 127
3 126 74 127
3 127 75 74
3 127 74 126
3 127 126 173
3 127 173 174
3 127 174 128
3 127 75 128
3 128 76 75
3 128 75 127
3 128 127 174
3 128 174 175
3 128 175 129
3 128 76 129
3 129 78 77
3 129 77 76
3 129 76 128
3 129 128 175
3 129 175 130
3 129 78 130
3 130 79 78
3 130 78 129
3 130 129 175
3 130 175 176
3 130 176 131
3 130 79 131
3 131 80 79
3 131 79 130
3 131 130 176
3 131 176 177
3 131 177 132
3 131 80 132
3 132 81 80
3 132 80 131
3 132 131 177
3 132 177 178
3 132 178 133
3 132 81 133
3 133 82 81
3 133 81 132
3 133 132 178
3 133 178 179
3 133 179 134
3 133 82 134
3 134 83 82
3 134 82 133
3 134 133 179
3 134 179 180
3 134 180 135
3 134 83 135
3 135 84 83
3 135 83 134
3 135 134 180
3 135 180 181
3 135 181 136
3 135 84 136
3 136 85 84
3 136 84 135
3 136 135 181
3 136 181 182
3 136 182 137
3 136 85 137
3 137 85 136
3 137 136 182
3 137 182 138
3 137 138 87
3 137 87 86
3 137 85 86
3 138 137 182
3 138 182 183
3 138 183 139
3 138 139 88
3 138 88 87
3 138 137 87
3 139 138 183
3 139 183 184
3 139 184 140
3 139 140 89
3 139 89 88
3 139 138 88
3 140 139 184
3 140 184 185
3 140 185 141
3 140 141 90
3 140 90 89
3 140 139 89
3 141 140 185
3 141 185 186
3 141 186 142
3 141 142 91
3 141 91 90
3 141 140 90
3 142 141 186
3 142 186 187
3 142 187 143
3 142 143 92
3 142 92 91
3 142 141 91
3 143 142 187
3 143 187 188
3 143 188 144
3 143 144 93
3 143 93 92
3 143 142 92
3 144 143 188
3 144 188 189
3 144 189 145
3 144 145 94
3 144 94 93
3 144 143 93
3 145 144 189
3 145 189 146
3 145 146 96
3 145 96 95
3 145 95 94
3 145 144 94
3 146 145 189
3 146 189 190
3 146 190 147
3 146 147 97
3 146 97 96
3 146 145 96
3 147 146 190
3 147 190 191
3 147 191 148
3 147 148 98
3 147 98 97
3 147 146 97
3 148 147 191
3 148 191 192
3 148 192 149
3 148 149 99
3 148 99 98
3 148 147 98
3 149 148 192
3 149 192 193
3 149 193 150
3 149 150 100
3 149 100 99
3 149 148 99
3 150 193 194
3 150 194 151
3 150 151 101
3 150 101 100
3 150 100 149
3 150 193 149
3 151 194 195
3 151 195 152
3 151 152 102
3 151 102 101
3 151 101 150
3 151 194 150
3 152 195 196
3 152 196 153
3 152 153 103
3 152 103 102
3 152 102 151
3 152 195 151
3 153 196 154
3 153 154 105
3 153 105 104
3 153 104 103
3 153 103 152
3 153 196 152
3 154 196 197
3 154 197 155
3 154 155 106
3 154 106 105
3 154 105 153
3 154 196 153
3 155 197 198
3 155 198 156
3 155 156 107
3 155 107 106
3 155 106 154
3 155 197 154
3 156 198 199
3 156 199 157
3 156 157 108
3 156 108 107
3 156 107 155
3 156 198 155
3 157 199 200
3 157 200 158
3 157 158 109
3 157 109 108
3 157 108 156
3 157 199 156
3 158 200 201
3 158 201 159
3 158 159 110
3 158 110 109
3 158 109 157
3 158 200 157
3 159 201 202
3 159 202 160
3 159 160 111
3 159 111 110
3 159 110 158
3 159 201 158
3 160 202 203
3 160 203 161
3 160 161 112
3 160 112 111
3 160 111 159
3 160 202 159
3 161 114 60
3 161 60 113
3 161 113 112
3 161 112 160
3 161 160 203
3 161 114 203
3 162 163 115
3 162 115 114
3 162 114 203
3 162 203 239
3 162 239 204
3 162 163 204
3 163 164 116
3 163 116 115
3 163 115 162
3 163 162 204
3 163 204 205
3 163 164 205
3 164 165 117
3 164 117 116
3 164 116 163
3 164 163 205
3 164 205 206
3 164 165 206
3 165 166 118
3 165 118 117
3 165 117 164
3 165 164 206
3 165 206 207
3 165 166 207
3 166 167 119
3 166 119 118
3 166 118 165
3 166 165 207
3 166 207 208
3 166 167 208
3 167 168 120
3 167 120 119
3 167 119 166
3 167 166 208
3 167 208 209
3 167 168 209
3 168 169 122
3 168 122 121
3 168 121 120
3 168 120 167
3 168 167 209
3 168 169 209
3 169 170 123
3 169 123 122
3 169 122 168
3 169 168 209
3 169 209 210
3 169 170 210
3 170 171 124
3 170 124 123
3 170 123 169
3 170 169 210
3 170 210 211
3 170 171 211
3 171 125 124
3 171 124 170
3 171 170 211
3 171 211 212
3 171 212 172
3 171 125 172
3 172 126 125
3 172 125 171
3 172 171 212
3 172 212 213
3 172 213 173
3 172 126 173
3 173 127 126
3 173 126 172
3 173 172 213
3 173 213 214
3 173 214 174
3 173 127 174
3 174 128 127
3 174 127 173
3 174 173 214
3 174 214 215
3 174 215 175
3 174 128 175
3 175 130 129
3 175 129 128
3 175 128 174
3 175 174 215
3 175 215 176
3 175 130 176
3 176 131 130
3 176 130 175
3 176 175 215
3 176 215 216
3 176 216 177
3 176 131 177
3 177 132 131
3 177 131 176
3 177 176 216
3 177 216 217
3 177 217 178
3 177 132 178
3 178 133 132
3 178 132 177
3 178 177 217
3 178 217 218
3 178 218 179
3 178 133 179
3 179 134 133
3 179 133 178
3 179 178 218
3 179 218 219
3 179 219 180
3 179 134 180
3 180 135 134
3 180 134 179
3 180 179 219
3 180 219 220
3 180 220 181
3 180 135 181
3 181 136 135
3 181 135 180
3 181 180 220
3 181 220 221
3 181 221 182
3 181 136 182
3 182 136 181
3 182 181 221
3 182 221 183
3 182 183 138
3 182 138 137
3 182 136 137
3 183 182 221
3 183 221 222
3 183 222 184
3 183 184 139
3 183 139 138
3 183 182 138
3 184 183 222
3 184 222 223
3 184 223 185
3 184 185 140
3 184 140 139
3 184 183 139
3 185 184 223
3 185 223 224
3 185 224 186
3 185 186 141
3 185 141 140
3 185 184 140
3 186 185 224
3 186 224 225
3 186 225 187
3 186 187 142
3 186 142 141
3 186 185 141
3 187 186 225
3 187 225 226
3 187 226 188
3 187 188 143
3 187 143 142
3 187 186 142
3 188 187 226
3 188 226 227
3 188 227 189
3 188 189 144
3 188 144 143
3 188 187 143
3 189 188 227
3 189 227 190
3 189 190 146
3 189 146 145
3 189 145 144
3 189 188 144
3 190 189 227
3 190 227 228
3 190 228 191
3 190 191 147
3 190 147 146
3 190 189 146
3 191 190 228
3 191 228 229
3 191 229 192
3 191 192 148
3 191 148 147
3 191 190 147
3 192 191 229
3 192 229 230
3 192 230 193
3 192 193 149
3 192 149 148
3 192 191 148
3 193 230 231
3 193 231 194
3 193 194 150
3 193 150 149
3 193 149 192
3 193 230 192
3 194 231 232
3 194 232 195
3 194 195 151
3 194 151 150
3 194 150 193
3 194 231 193
3 195 232 233
3 195 233 196
3 195 196 152
3 195 152 151
3 195 151 194
3 195 232 194
3 196 233 197
3 196 197 154
3 196 154 153
3 196 153 152
3 196 152 195
3 196 233 195
3 197 233 234
3 197 234 198
3 197 198 155
3 197 155 154
3 197 154 196
3 197 233 196
3 198 234 235
3 198 235 199
3 198 199 156
3 198 156 155
3 198 155 197
3 198 234 197
3 199 235 236
3 199 236 200
3 199 200 157
3 199 157 156
3 199 156 198
3 199 235 198
3 200 236 237
3 200 237 201
3 200 201 158
3 200 158 157
3 200 157 199
3 200 236 199
3 201 237 238
3 201 238 202
3 201 202 159
3 201 159 158
3 201 158 200
3 201 237 200
3 202 238 239
3 202 239 203
3 202 203 160
3 202 160 159
3 202 159 201
3 202 238 201
3 203 162 114
3 203 114 161
3 203 161 160
3 203 160 202
3 203 202 239
3 203 162 239
3 204 205 163
3 204 163 162
3 204 162 239
3 204 239 269
3 204 269 240
3 204 205 240
3 205 206 164
3 205 164 163
3 205 163 204
3 205 204 240
3 205 240 241
3 205 206 241
3 206 207 165
3 206 165 164
3 206 164 205
3 206 205 241
3 206 241 242
3 206 207 242
3 207 208 166
3 207 166 165
3 207 165 206
3 207 206 242
3 207 242 243
3 207 208 243
3 208 209 167
3 208 167 166
3 208 166 207
3 208 207 243
3 208 243 244
3 208 209 244
3 209 210 169
3 209 169 168
3 209 168 167
3 209 167 208
3 209 208 244
3 209 210 244
3 210 211 170
3 210 170 169
3 210 169 209
3 210 209 244
3 210 244 245
3 210 211 245
3 211 212 171
3 211 171 170
3 211 170 210
3 211 210 245
3 211 245 246
3 211 212 246
3 212 172 171
3 212 171 211
3 212 211 246
3 212 246 247
3 212 247 213
3 212 172 213
3 213 173 172
3 213 172 212
3 213 212 247
3 213 247 248
3 213 248 214
3 213 173 214
3 214 174 173
3 214 173 213
3 214 213 248
3 214 248 249
3 214 249 215
3 214 174 215
3 215 176 175
3 215 175 174
3 215 174 214
3 215 214 249
3 215 249 216
3 215 176 216
3 216 177 176
3 216 176 215
3 216 215 249
3 216 249 250
3 216 250 217
3 216 177 217
3 217 178 177
3 217 177 216
3 217 216 250
3 217 250 251
3 217 251 218
3 217 178 218
3 218 179 178
3 218 178 217
3 218 217 251
3 218 251 252
3 218 252 219
3 218 179 219
3 219 180 179
3 219 179 218
3 219 218 252
3 219 252 253
3 219 253 220
3 219 180 220
3 220 181 180
3 220 180 219
3 220 219 253
3 220 253 254
3 220 254 221
3 220 181 221
3 221 181 220
3 221 220 254
3 221 254 222
3 221 222 183
3 221 183 182
3 221 181 182
3 222 221 254
3 222 254 255
3 222 255 223
3 222 223 184
3 222 184 183
3 222 221 183
3 223 222 255
3 223 255 256
3 223 256 224
3 223 224 185
3 223 185 184
3 223 222 184
3 224 223 256
3 224 256 257
3 224 257 225
3 224 225 186
3 224 186 185
3 224 223 185
3 225 224 257
3 225 257 258
3 225 258 226
3 225 226 187
3 225 187 186
3 225 224 186
3 226 225 258
3 226 258 259
3 226 259 227
3 226 227 188
3 226 188 187
3 226 225 187
3 227 226 259
3 227 259 228
3 227 228 190
3 227 190 189
3 227 189 188
3 227 226 188
3 228 227 259
3 228 259 260
3 228 260 229
3 228 229 191
3 228 191 190
3 228 227 190
3 229 228 260
3 229 260 261
3 229 261 230
3 229 230 192
3 229 192 191
3 229 228 191
3 230 229 261
3 230 261 262
3 230 262 231
3 230 231 193
3 230 193 192
3 230 229 192
3 231 262 263
3 231 263 232
3 231 232 194
3 231 194 193
3 231 193 230
3 231 262 230
3 232 263 264
3 232 264 233
3 232 233 195
3 232 195 194
3 232 194 231
3 232 263 231
3 233 264 234
3 233 234 197
3 233 197 196
3 233 196 195
3 233 195 232
3 233 264 232
3 234 264 265
3 234 265 235
3 234 235 198
3 234 198 197
3 234 197 233
3 234 264 233
3 235 265 266
3 235 266 236
3 235 236 199
3 235 199 198
3 235 198 234
3 235 265 234
3 236 266 267
3 236 267 237
3 236 237 200
3 236 200 199
3 236 199 235
3 236 266 235
3 237 267 268
3 237 268 238
3 237 238 201
3 237 201 200
3 237 200 236
3 237 267 236
3 238 268 269
3 238 269 239
3 238 239 202
3 238 202 201
3 238 201 237
3 238 268 237
3 239 204 162
3 239 162 203
3 239 203 202
3 239 202 238
3 239 238 269
3 239 204 269
3 240 241 205
3 240 205 204
3 240 204 269
3 240 269 293
3 240 293 270
3 240 241 270
3 241 242 206
3 241 206 205
3 241 205 240
3 241 240 270
3 241 270 271
3 241 242 271
3 242 243 207
3 242 207 206
3 242 206 241
3 242 241 271
3 242 271 272
3 242 243 272
3 243 244 208
3 243 208 207
3 243 207 242
3 243 242 272
3 243 272 273
3 243 244 273
3 244 245 210
3 244 210 209
3 244 209 208
3 244 208 243
3 244 243 273
3 244 245 273
3 245 246 211
3 245 211 210
3 245 210 244
3 245 244 273
3 245 273 274
3 245 246 274
3 246 212 211
3 246 211 245
3 246 245 274
3 246 274 275
3 246 275 247
3 246 212 247
3 247 213 212
3 247 212 246
3 247 246 275
3 247 275 276
3 247 276 248
3 247 213 248
3 248 214 213
3 248 213 247
3 248 247 276
3 248 276 277
3 248 277 249
3 248 214 249
3 249 216 215
3 249 215 214
3 249 214 248
3 249 248 277
3 249 277 250
3 249 216 250
3 250 217 216
3 250 216 249
3 250 249 277
3 250 277 278
3 250 278 251
3 250 217 251
3 251 218 217
3 251 217 250
3 251 250 278
3 251 278 279
3 251 279 252
3 251 218 252
3 252 219 218
3 252 218 251
3 252 251 279
3 252 279 280
3 252 280 253
3 252 219 253
3 253 220 219
3 253 219 252
3 253 252 280
3 253 280 281
3 253 281 254
3 253 220 254
3 254 220 253
3 254 253 281
3 254 281 255
3 254 255 222
3 254 222 221
3 254 220 221
3 255 254 281
3 255 281 282
3 255 282 256
3 255 256 223
3 255 223 222
3 255 254 222
3 256 255 282
3 256 282 283
3 256 283 257
3 256 257 224
3 256 224 223
3 256 255 223
3 257 256 283
3 257 283 284
3 257 284 258
3 257 258 225
3 257 225 224
3 257 256 224
3 258 257 284
3 258 284 285
3 258 285 259
3 258 259 226
3 258 226 225
3 258 257 225
3 259 258 285
3 259 285 260
3 259 260 228
3 259 228 227
3 259 227 226
3 259 258 226
3 260 259 285
3 260 285 286
3 260 286 261
3 260 261 229
3 260 229 228
3 260 259 228
3 261 260 286
3 261 286 287
3 261 287 262
3 261 262 230
3 261 230 229
3 261 260 229
3 262 287 288
3 262 288 263
3 262 263 231
3 262 231 230
3 262 230 261
3 262 287 261
3 263 288 289
3 263 289 264
3 263 264 232
3 263 232 231
3 263 231 262
3 263 288 262
3 264 289 265
3 264 265 234
3 264 234 233
3 264 233 232
3 264 232 263
3 264 289 263
3 265 289 290
3 265 290 266
3 265 266 235
3 265 235 234
3 265 234 264
3 265 289 264
3 266 290 291
3 266 291 267
3 266 267 236
3 266 236 235
3 266 235 265
3 266 290 265
3 267 291 292
3 267 292 268
3 267 268 237
3 267 237 236
3 267 236 266
3 267 291 266
3 268 292 293
3 268 293 269
3 268 269 238
3 268 238 237
3 268 237 267
3 268 292 267
3 269 240 204
3 269 204 239
3 269 239 238
3 269 238 268
3 269 268 293
3 269 240 293
3 270 271 241
3 270 241 240
3 270 240 293
3 270 293 311
3 270 311 294
3 270 271 294
3 271 272 242
3 271 242 241
3 271 241 270
3 271 270 294
3 271 294 295
3 271 272 295
3 272 273 243
3 272 243 242
3 272 242 271
3 272 271 295
3 272 295 296
3 272 273 296
3 273 274 245
3 273 245 244
3 273 244 243
3 273 243 272
3 273 272 296
3 273 274 296
3 274 275 246
3 274 246 245
3 274 245 273
3 274 273 296
3 274 296 297
3 274 275 297
3 275 247 246
3 275 246 274
3 275 274 297
3 275 297 298
3 275 298 276
3 275 247 276
3 276 248 247
3 276 247 275
3 276 275 298
3 276 298 299
3 276 299 277
3 276 248 277
3 277 250 249
3 277 249 248
3 277 248 276
3 277 276 299
3 277 299 278
3 277 250 278
3 278 251 250
3 278 250 277
3 278 277 299
3 278 299 300
3 278 300 279
3 278 251 279
3 279 252 251
3 279 251 278
3 279 278 300
3 279 300 301
3 279 301 280
3 279 252 280
3 280 253 252
3 280 252 279
3 280 279 301
3 280 301 302
3 280 302 281
3 280 253 281
3 281 253 280
3 281 280 302
3 281 302 282
3 281 282 255
3 281 255 254
3 281 253 254
3 282 281 302
3 282 302 303
3 282 303 283
3 282 283 256
3 282 256 255
3 282 281 255
3 283 282 303
3 283 303 304
3 283 304 284
3 283 284 257
3 283 257 256
3 283 282 256
3 284 283 304
3 284 304 305
3 284 305 285
3 284 285 258
3 284 258 257
3 284 283 257
3 285 284 305
3 285 305 286
3 285 286 260
3 285 260 259
3 285 259 258
3 285 284 258
3 286 285 305
3 286 305 306
3 286 306 287
3 286 287 261
3 286 261 260
3 286 285 260
3 287 286 306
3 287 306 307
3 287 307 288
3 287 288 262
3 287 262 261
3 287 286 261
3 288 307 308
3 288 308 289
3 288 289 263
3 288 263 262
3 288 262 287
3 288 307 287
3 289 308 290
3 289 290 265
3 289 265 264
3 289 264 263
3 289 263 288
3 289 308 288
3 290 308 309
3 290 309 291
3 290 291 266
3 290 266 265
3 290 265 289
3 290 308 289
3 291 309 310
3 291 310 292
3 291 292 267
3 291 267 266
3 291 266 290
3 291 309 290
3 292 310 311
3 292 311 293
3 292 293 268
3 292 268 267
3 292 267 291
3 292 310 291
3 293 270 240
3 293 240 269
3 293 269 268
3 293 268 292
3 293 292 311
3 293 270 311
3 294 295 271
3 294 271 270
3 294 270 311
3 294 311 323
3 294 323 312
3 294 295 312
3 295 296 272
3 295 272 271
3 295 271 294
3 295 294 312
3 295 312 313
3 295 296 313
3 296 297 274
3 296 274 273
3 296 273 272
3 296 272 295
3 296 295 313
3 296 297 313
3 297 275 274
3 297 274 296
3 297 296 313
3 297 313 314
3 297 314 298
3 297 275 298
3 298 276 275
3 298 275 297
3 298 297 314
3 298 314 315
3 298 315 299
3 298 276 299
3 299 278 277
3 299 277 276
3 299 276 298
3 299 298 315
3 299 315 300
3 299 278 300
3 300 279 278
3 300 278 299
3 300 299 315
3 300 315 316
3 300 316 301
3 300 279 301
3 301 280 279
3 301 279 300
3 301 300 316
3 301 316 317
3 301 317 302
3 301 280 302
3 302 280 301
3 302 301 317
3 302 317 303
3 302 303 282
3 302 282 281
3 302 280 281
3 303 302 317
3 303 317 318
3 303 318 304
3 303 304 283
3 303 283 282
3 303 302 282
3 304 303 318
3 304 318 319
3 304 319 305
3 304 305 284
3 304 284 283
3 304 303 283
3 305 304 319
3 305 319 306
3 305 306 286
3 305 286 285
3 305 285 284
3 305 304 284
3 306 305 319
3 306 319 320
3 306 320 307
3 306 307 287
3 306 287 286
3 306 305 286
3 307 320 321
3 307 321 308
3 307 308 288
3 307 288 287
3 307 287 306
3 307 320 306
3 308 321 309
3 308 309 290
3 308 290 289
3 308 289 288
3 308 288 307
3 308 321 307
3 309 321 322
3 309 322 310
3 309 310 291
3 309 291 290
3 309 290 308
3 309 321 308
3 310 322 323
3 310 323 311
3 310 311 292
3 310 292 291
3 310 291 309
3 310 322 309
3 311 294 270
3 311 270 293
3 311 293 292
3 311 292 310
3 311 310 323
3 311 294 323
3 312 313 295
3 312 295 294
3 312 294 323
3 312 323 329
3 312 329 324
3 312 313 324
3 313 314 297
3 313 297 296
3 313 296 295
3 313 295 312
3 313 312 324
3 313 314 324
3 314 298 297
3 314 297 313
3 314 313 324
3 314 324 325
3 314 325 315
3 314 298 315
3 315 300 299
3 315 299 298
3 315 298 314
3 315 314 325
3 315 325 316
3 315 300 316
3 316 301 300
3 316 300 315
3 316 315 325
3 316 325 326
3 316 326 317
3 316 301 317
3 317 301 316
3 317 316 326
3 317 326 318
3 317 318 303
3 317 303 302
3 317 301 302
3 318 317 326
3 318 326 327
3 318 327 319
3 318 319 304
3 318 304 303
3 318 317 303
3 319 318 327
3 319 327 320
3 319 320 306
3 319 306 305
3 319 305 304
3 319 318 304
3 320 319 327
3 320 327 328
3 320 328 321
3 320 321 307
3 320 307 306
3 320 319 306
3 321 328 322
3 321 322 309
3 321 309 308
3 321 308 307
3 321 307 320
3 321 328 320
3 322 328 329
3 322 329 323
3 322 323 310
3 322 310 309
3 322 309 321
3 322 328 321
3 323 312 294
3 323 294 311
3 323 311 310
3 323 310 322
3 323 322 329
3 323 312 329
3 324 314 313
3 324 313 312
3 324 312 329
3 324 329 330
3 324 330 325
3 324 314 325
3 325 316 315
3 325 315 314
3 325 314 324
3 325 324 330
3 325 330 326
3 325 316 326
3 326 316 325
3 326 325 330
3 326 330 327
3 326 327 318
3 326 318 317
3 326 316 317
3 327 326 330
3 327 330 328
3 327 328 320
3 327 320 319
3 327 319 318
3 327 326 318
3 328 330 329
3 328 329 322
3 328 322 321
3 328 321 320
3 328 320 327
3 328 330 327
3 329 324 312
3 329 312 323
3 329 323 322
3 329 322 328
3 329 328 330
3 329 324 330
3 330 325 324
3 330 324 329
3 330 329 328
3 330 328 327
3 330 327 326
3 330 325 326
